<?xml version="1.0" standalone="no"?>
<!DOCTYPE svg PUBLIC "-//W3C//DTD SVG 20010904//EN"
 "http://www.w3.org/TR/2001/REC-SVG-20010904/DTD/svg10.dtd">
<svg version="1.0" xmlns="http://www.w3.org/2000/svg"
 width="960.000000pt" height="960.000000pt" viewBox="0 0 960.000000 960.000000"
 preserveAspectRatio="xMidYMid meet">

<g transform="translate(0.000000,960.000000) scale(0.100000,-0.100000)"
fill="#000000" stroke="none">
<path d="M0 4800 l0 -4800 4800 0 4800 0 0 4800 0 4800 -4800 0 -4800 0 0
-4800z m7322 4677 c24 -28 38 -56 43 -84 l6 -43 540 0 539 0 0 -2715 c0 -1493
-3 -2715 -6 -2715 -4 0 -23 14 -43 30 -52 44 -51 43 -111 76 -30 16 -57 33
-59 38 -2 5 -12 17 -23 28 -11 11 -60 66 -108 122 -48 55 -101 116 -118 135
-18 18 -32 37 -32 42 0 5 -11 16 -25 25 -14 9 -25 20 -25 24 0 4 -17 25 -37
47 l-38 40 -133 12 c-107 9 -141 16 -170 34 -65 40 -76 46 -107 63 -16 9 -40
25 -52 37 -19 16 -25 18 -38 7 -8 -7 -15 -19 -15 -26 0 -8 -4 -14 -10 -14 -5
0 -16 -12 -24 -27 -41 -76 -91 -103 -197 -103 l-56 0 -8 -37 c-4 -21 -10 -78
-15 -128 -4 -49 -13 -127 -20 -173 -12 -81 -12 -82 12 -102 12 -11 29 -19 36
-20 8 0 26 -8 40 -17 15 -10 36 -24 47 -31 11 -7 34 -22 52 -33 65 -42 89
-152 63 -289 -12 -61 -123 -311 -152 -342 -7 -7 -31 -39 -52 -71 -22 -32 -50
-66 -62 -76 -13 -10 -21 -21 -18 -24 4 -3 -4 -20 -16 -37 -14 -20 -25 -55 -30
-94 -4 -33 -14 -90 -23 -126 -9 -36 -25 -112 -37 -170 -12 -58 -28 -134 -37
-170 -9 -36 -20 -87 -25 -115 -6 -27 -20 -97 -33 -155 -47 -210 -65 -306 -65
-352 l0 -47 63 -3 62 -3 0 -135 0 -135 -42 -3 c-40 -3 -43 -5 -43 -31 0 -36
38 -151 56 -172 8 -8 14 -28 14 -42 0 -30 22 -93 51 -148 10 -20 19 -42 19
-49 0 -6 11 -26 25 -44 14 -18 25 -37 25 -42 0 -33 221 -284 250 -284 5 0 9
241 9 536 1 294 3 540 6 545 4 5 122 9 274 9 l269 0 4 -32 c3 -18 15 -85 27
-148 12 -63 30 -153 39 -200 l16 -85 28 150 c15 83 33 186 40 230 l13 80 269
3 c190 2 273 -1 282 -9 19 -16 21 -1218 2 -1237 -8 -8 -67 -12 -200 -12 l-188
0 -2 308 c0 169 -3 291 -5 272 -2 -19 -14 -98 -28 -175 -13 -77 -35 -200 -47
-272 l-23 -133 -137 0 c-122 0 -137 2 -142 18 -6 20 -25 123 -61 327 -54 305
-53 306 -54 -37 l-1 -308 -97 0 -98 0 41 -38 c197 -186 53 -380 -335 -452
-230 -43 -619 -16 -946 65 -33 9 -117 27 -187 42 l-126 27 -194 -13 c-106 -7
-249 -17 -318 -21 -69 -5 -204 -16 -300 -26 -234 -24 -550 -24 -730 0 -74 9
-173 21 -220 26 -107 10 -267 35 -390 62 -52 11 -115 24 -140 27 -113 18 -329
93 -377 131 -38 30 -63 70 -63 102 0 29 29 88 44 88 5 0 18 8 28 17 11 10 34
22 51 28 l32 10 1 370 2 370 -19 -105 c-11 -58 -28 -157 -39 -220 -10 -63 -29
-171 -41 -240 -12 -69 -24 -149 -26 -177 l-5 -53 -134 0 -134 0 0 33 c0 17
-11 88 -24 157 -14 69 -34 179 -45 245 -39 229 -53 297 -61 319 -5 12 -9 -139
-9 -366 l-1 -388 -175 0 -175 0 0 610 0 610 264 0 264 0 6 -47 c8 -61 42 -248
69 -381 24 -116 26 -114 50 38 10 58 29 169 44 248 l26 142 264 0 263 0 0
-549 0 -548 73 4 c98 5 183 19 253 42 l59 18 5 524 5 524 79 3 78 3 -4 132
c-3 73 -12 161 -21 197 -47 186 -61 255 -73 365 -23 212 -15 241 30 98 15 -49
37 -117 48 -153 11 -36 31 -91 44 -123 13 -32 24 -66 24 -76 0 -10 8 -40 19
-67 25 -66 41 -175 41 -284 l0 -89 83 -3 82 -3 0 -625 0 -625 -215 0 -215 0
-3 38 c-3 32 -6 37 -20 32 -9 -3 -28 -8 -42 -10 -177 -29 -242 -38 -354 -45
-174 -10 -366 -57 -366 -89 0 -11 82 -48 155 -70 124 -37 260 -71 278 -71 11
0 76 -11 145 -24 171 -33 410 -63 624 -77 203 -14 526 -2 852 32 120 13 274
21 425 22 214 2 243 0 316 -20 115 -31 291 -70 430 -95 100 -18 159 -21 355
-21 215 -1 242 1 310 22 93 27 212 80 223 98 4 7 15 13 23 13 19 0 33 39 27
73 -5 24 -29 50 -160 170 -23 20 -46 37 -52 37 -6 0 -15 9 -21 20 -6 11 -15
20 -21 20 -18 0 -236 225 -252 260 -4 8 -21 35 -37 60 -16 25 -39 64 -50 88
l-19 42 -106 0 -105 0 0 -115 0 -114 143 -3 142 -3 0 -135 0 -135 -360 0 -360
0 0 625 0 625 225 3 225 2 18 118 c18 118 39 223 82 407 13 55 33 147 45 205
12 58 33 149 47 203 13 54 23 103 21 108 -2 5 -21 -8 -44 -28 -128 -120 -294
-274 -337 -315 -27 -27 -53 -48 -57 -48 -4 0 -10 -9 -13 -20 -3 -11 -10 -20
-16 -20 -20 0 -11 51 14 84 23 31 24 46 3 46 -5 0 -6 -5 -2 -11 3 -6 1 -15 -7
-19 -8 -6 -28 6 -57 36 -25 24 -49 44 -54 44 -5 0 -13 11 -18 25 -5 14 -16 25
-25 25 -8 0 -15 7 -15 15 0 9 -8 19 -17 22 -26 9 -33 23 -33 66 0 43 -11 48
-30 12 -7 -14 -17 -25 -22 -25 -13 0 -10 7 22 42 17 18 30 27 30 20 0 -6 5
-12 10 -12 19 0 10 38 -12 54 -23 16 -23 16 5 4 28 -12 44 -7 33 11 -8 13 -96
31 -150 31 -29 0 -48 -6 -57 -17 -12 -14 -12 -16 0 -9 9 6 12 5 9 -5 -3 -8
-11 -13 -18 -11 -8 2 -11 -4 -7 -18 3 -11 2 -18 -2 -16 -4 3 -15 -4 -24 -14
-14 -17 -26 -18 -99 -14 -69 5 -91 3 -128 -14 -38 -16 -55 -18 -115 -11 -38 5
-71 5 -75 1 -3 -4 -26 -22 -52 -39 -34 -24 -57 -33 -87 -33 -52 0 -53 16 -2
25 22 4 45 13 52 21 6 8 18 14 25 14 8 0 14 5 14 11 0 5 5 7 11 4 7 -5 9 13 5
56 -20 264 -20 249 -2 249 10 0 14 4 11 10 -3 5 0 8 7 5 38 -15 219 148 193
173 -3 4 -9 2 -13 -4 -4 -5 -15 -10 -26 -9 -23 0 -52 -40 -37 -50 6 -3 11 -1
11 5 0 6 5 8 11 4 8 -4 9 1 5 17 -6 21 -6 22 5 6 13 -22 1 -39 -29 -42 -10 0
-29 -9 -42 -18 -14 -9 -30 -17 -37 -17 -6 0 -15 -5 -19 -11 -5 -9 1 -10 22 -5
23 5 26 4 11 -4 -9 -6 -26 -8 -37 -5 -20 6 -102 -14 -96 -24 2 -3 -29 -5 -70
-3 -64 3 -76 7 -86 25 -6 12 -14 24 -17 27 -8 7 -37 56 -63 107 l-21 42 58 72
c32 39 71 79 86 88 22 12 29 23 29 46 0 82 -32 460 -39 469 -5 6 -11 27 -13
46 -3 19 -14 71 -26 115 -47 182 -56 234 -57 303 l0 74 -37 -5 c-40 -5 -50 6
-20 21 9 5 52 17 95 27 43 9 80 22 83 28 2 7 8 44 13 82 l8 70 -72 71 c-39 39
-78 87 -85 105 -7 19 -17 39 -21 44 -4 6 -23 51 -43 102 l-36 92 12 100 c12
98 13 99 45 115 46 22 50 20 24 -8 -20 -21 -21 -28 -12 -62 5 -22 13 -75 17
-119 7 -75 25 -125 45 -125 5 0 4 12 -2 28 -18 45 -24 216 -9 251 14 36 13 35
49 16 25 -12 30 -24 40 -77 6 -35 18 -68 26 -74 8 -6 15 -18 15 -26 0 -8 9
-25 20 -38 11 -13 20 -28 20 -33 0 -14 78 -85 113 -103 15 -8 27 -19 27 -24 0
-6 4 -10 10 -10 5 0 31 -20 57 -45 62 -60 102 -61 72 -2 -10 20 -82 93 -165
169 -100 91 -136 136 -144 177 -5 31 -4 41 6 41 7 0 16 -4 19 -10 3 -5 13 -10
21 -10 8 0 31 -10 52 -23 56 -35 115 -51 138 -39 15 8 25 6 44 -9 14 -10 31
-19 38 -19 7 0 24 -7 38 -16 13 -9 26 -15 28 -13 2 2 16 24 31 48 24 39 27 51
21 98 -5 43 -12 59 -37 81 -16 15 -50 46 -74 70 -24 23 -46 42 -50 42 -3 0
-21 11 -39 25 -18 14 -36 25 -40 25 -10 0 -76 54 -76 62 0 4 -7 16 -15 25 -40
49 -115 159 -115 169 0 7 -7 14 -15 18 -10 3 -15 19 -15 44 0 65 -38 140 -64
125 -5 -3 -6 -2 -3 4 4 6 -5 21 -19 34 -14 13 -34 37 -44 54 -18 29 -18 36 -5
105 18 99 25 120 47 152 10 14 18 33 18 40 0 21 105 118 128 118 5 0 13 7 16
16 4 10 13 13 25 9 11 -3 22 -1 25 4 4 6 -14 12 -41 16 -103 13 -112 16 -131
43 -21 30 -47 155 -57 272 -6 68 -21 133 -44 185 -32 73 -84 176 -92 181 -11
7 -12 41 -1 46 9 3 68 121 89 178 7 19 13 60 13 90 0 31 7 82 15 113 8 32 15
68 15 80 0 21 51 77 70 77 4 0 15 11 24 25 9 14 23 25 31 25 8 0 15 5 15 10 0
29 -107 -7 -140 -47 -9 -10 -27 -27 -41 -38 -30 -23 -49 -56 -49 -82 0 -10
-14 -47 -30 -82 -22 -45 -32 -86 -37 -140 -7 -79 -20 -71 -22 14 -1 22 -4 50
-7 63 l-6 22 -33 -20 c-37 -23 -185 -167 -185 -180 0 -14 34 -70 43 -70 4 0 7
-9 7 -20 0 -11 4 -20 9 -20 5 0 14 -46 21 -102 18 -151 95 -346 167 -426 18
-19 35 -49 39 -66 4 -17 10 -37 15 -46 28 -54 59 -132 59 -151 0 -12 8 -27 17
-34 16 -12 16 -14 0 -29 -9 -10 -17 -21 -17 -26 0 -5 -9 -12 -20 -15 -11 -3
-20 -12 -20 -20 0 -7 -23 -30 -51 -51 -51 -37 -51 -37 -152 -37 -103 0 -157
12 -157 35 0 7 -11 25 -25 40 -14 15 -25 31 -25 36 0 5 -9 17 -20 27 -11 10
-20 22 -20 27 0 5 -11 24 -25 42 -14 18 -25 37 -25 42 0 5 -13 34 -29 64 -17
30 -50 93 -75 140 -24 47 -58 110 -75 140 -60 108 -68 135 -76 228 -4 51 -10
92 -14 92 -4 0 -18 -12 -31 -27 l-24 -28 -18 70 c-12 46 -18 108 -18 183 0 74
-4 112 -11 112 -33 0 -129 -164 -129 -220 0 -34 -19 -31 -26 4 -4 23 -1 45 9
65 16 33 7 42 -15 15 -7 -8 -21 -24 -30 -34 -35 -39 -41 -60 -22 -81 9 -10 23
-19 29 -19 7 0 18 -7 25 -15 16 -19 11 -19 -36 2 -40 17 -212 21 -296 7 l-38
-6 0 -101 0 -102 -25 30 c-13 17 -24 34 -25 39 0 5 -11 24 -25 42 -14 18 -25
35 -25 38 0 2 -14 27 -31 55 l-32 51 -103 1 c-57 1 -109 2 -115 3 -13 1 -22
15 -44 66 -9 19 -20 42 -25 50 -8 12 -84 170 -99 204 -2 5 3 5 10 1 8 -5 11
-4 6 1 -5 5 -12 9 -15 8 -8 -1 -42 52 -42 67 0 5 -5 15 -10 22 -6 7 -17 21
-25 32 -13 18 -14 15 -15 -35 0 -30 -9 -122 -19 -205 -11 -82 -26 -195 -33
-250 -21 -159 -10 -480 33 -990 l20 -240 -22 -17 c-11 -10 -24 -18 -28 -18 -3
0 -19 20 -36 45 -16 24 -33 45 -36 45 -4 0 -9 8 -12 18 -2 12 -17 22 -37 26
-49 9 -110 -34 -110 -78 0 -17 7 -41 15 -52 8 -12 19 -68 25 -129 6 -59 17
-133 25 -163 8 -31 15 -85 15 -121 0 -64 0 -65 -62 -140 -60 -74 -62 -77 -60
-129 2 -47 8 -60 44 -103 39 -46 41 -53 46 -126 3 -43 11 -87 18 -98 11 -18 5
-28 -67 -103 -43 -46 -79 -90 -79 -97 0 -8 -7 -18 -15 -22 -8 -5 -24 -32 -35
-61 -11 -29 -28 -74 -39 -101 -10 -27 -35 -74 -56 -105 -39 -59 -58 -65 -93
-30 -31 31 -52 35 -110 23 -81 -16 -131 -38 -144 -63 -43 -80 -125 -189 -179
-236 -35 -30 -85 -76 -112 -102 -26 -27 -52 -48 -57 -48 -5 0 -13 -6 -17 -13
-4 -7 -38 -35 -75 -61 -38 -26 -68 -52 -68 -57 0 -5 -6 -9 -12 -9 -7 0 -37
-22 -65 -48 l-53 -47 -6 -101 -7 -102 -45 -6 c-25 -3 -66 -6 -91 -6 -25 -1
-57 -7 -71 -15 -14 -8 -28 -14 -32 -15 -5 0 -8 1289 -8 2865 l0 2865 1718 -1
c1530 0 1713 -2 1677 -15 -22 -8 -62 -19 -89 -25 -27 -5 -86 -27 -131 -49 -45
-22 -88 -40 -94 -40 -7 0 -29 -11 -49 -25 -20 -14 -41 -25 -47 -25 -5 0 -41
-15 -80 -34 -38 -19 -106 -50 -150 -71 -44 -20 -96 -45 -116 -56 -20 -10 -42
-19 -49 -19 -11 0 -101 -78 -260 -226 -25 -23 -70 -65 -100 -93 -67 -62 -112
-106 -125 -123 -5 -7 -23 -31 -40 -53 -40 -55 -47 -63 -69 -87 -18 -20 -18
-21 3 -49 12 -15 21 -31 21 -34 0 -4 10 -21 23 -38 26 -38 41 -61 63 -102 9
-16 27 -43 41 -60 32 -41 32 -42 78 -110 22 -33 46 -64 53 -68 6 -4 12 -13 12
-18 0 -11 17 -35 71 -102 14 -18 29 -39 32 -47 4 -8 23 -35 42 -60 19 -25 39
-55 45 -67 5 -13 14 -23 20 -23 5 0 12 -11 16 -25 3 -14 9 -25 13 -25 3 0 17
-17 31 -38 47 -71 102 -142 111 -142 4 0 48 41 98 90 49 50 93 90 96 90 4 0
21 11 39 25 18 14 39 25 45 25 7 0 27 10 44 23 44 30 173 49 244 35 40 -8 63
-21 104 -59 29 -27 55 -49 58 -49 2 0 12 -7 22 -16 15 -14 20 -13 51 3 19 10
52 38 74 62 42 46 110 91 137 91 10 0 17 8 17 18 0 11 9 27 20 37 11 10 20 24
20 31 0 14 70 90 133 144 23 20 56 37 85 42 53 11 60 11 193 -1 89 -9 102 -13
178 -57 50 -29 88 -58 96 -75 8 -15 20 -33 27 -41 14 -14 31 -54 56 -130 17
-51 23 -56 44 -35 7 7 29 23 49 35 20 12 61 48 92 80 108 112 146 153 145 158
0 3 11 18 24 32 12 15 35 46 50 68 14 23 42 59 62 80 20 21 36 45 36 52 0 6 4
12 9 12 5 0 29 28 54 63 25 35 53 70 63 78 16 13 16 12 4 -11 -7 -14 -28 -44
-46 -67 -19 -23 -34 -46 -34 -52 0 -6 -3 -11 -7 -11 -5 0 -21 -20 -38 -45 -16
-24 -36 -45 -43 -45 -7 0 -10 -5 -7 -11 4 -5 -4 -20 -17 -33 -12 -13 -34 -40
-48 -60 -22 -33 -79 -106 -135 -176 -50 -62 -172 -170 -192 -170 -21 0 -30
-38 -24 -105 l6 -70 12 38 c6 20 7 35 2 31 -5 -3 -9 0 -9 5 0 6 7 11 15 11 9
0 18 7 21 15 4 8 14 15 24 15 10 0 22 9 25 20 3 11 10 20 14 20 4 0 26 18 50
40 23 22 46 40 49 40 4 0 20 11 35 25 16 16 27 21 28 13 0 -7 4 -3 9 10 5 12
17 25 27 29 10 4 33 22 52 41 30 30 33 32 27 11 -5 -13 -10 -37 -12 -54 -2
-16 3 -7 11 20 21 66 32 88 82 163 24 35 43 69 43 76 0 32 44 137 61 147 11 5
27 28 35 50 9 21 20 39 25 39 5 0 9 6 9 14 0 7 7 19 16 27 8 7 45 52 81 101
36 48 69 88 74 88 5 0 9 6 9 13 0 8 9 22 19 31 11 10 22 30 25 44 13 54 92
252 147 368 22 45 39 86 39 92 0 5 10 29 23 53 39 74 67 175 67 240 0 48 6 72
28 110 15 27 34 49 43 49 9 0 19 3 23 7 22 22 77 31 156 27 l85 -5 37 -42z
m-432 -139 c-1 -24 -36 -112 -78 -199 -23 -47 -42 -91 -42 -98 0 -6 -8 -28
-19 -49 -22 -43 -54 -155 -55 -194 -1 -14 -4 -30 -8 -34 -5 -4 -8 -14 -8 -22
0 -22 -69 -162 -80 -162 -6 0 -10 -5 -10 -11 0 -10 -18 -37 -67 -97 -18 -21
-22 -23 -23 -9 0 9 4 17 8 17 4 0 21 23 37 50 16 28 33 50 37 50 4 0 8 9 8 19
0 11 4 22 10 26 5 3 24 35 41 71 l32 65 -24 22 c-54 49 -127 105 -179 137 -30
19 -57 37 -60 41 -3 3 -36 27 -75 53 -38 26 -101 68 -139 94 -108 74 -117 78
-201 96 -44 9 -118 26 -165 37 -47 11 -95 19 -108 19 -13 0 -62 11 -110 24
-54 15 -129 27 -197 31 -60 3 -162 12 -225 19 -102 12 -11 14 793 15 720 1
907 -2 907 -11z m-2193 -171 c4 -6 -3 -8 -20 -3 -16 4 -27 1 -30 -7 -3 -6 -6
-2 -6 9 -1 17 4 20 24 16 14 -2 28 -9 32 -15z m83 -17 c0 -5 -4 -10 -10 -10
-5 0 -10 5 -10 10 0 6 5 10 10 10 6 0 10 -4 10 -10z m120 -11 c18 -5 9 -7 -30
-6 -30 1 -64 -2 -75 -7 -12 -4 -10 -1 4 7 23 14 24 15 5 20 -10 3 1 3 26 -1
25 -3 56 -9 70 -13z m-217 -6 c-7 -2 -21 -2 -30 0 -10 3 -4 5 12 5 17 0 24 -2
18 -5z m280 -10 c-7 -2 -19 -2 -25 0 -7 3 -2 5 12 5 14 0 19 -2 13 -5z m112
-13 c18 -8 18 -9 -5 -9 -14 0 -32 4 -40 9 -12 8 -12 10 5 9 11 0 29 -4 40 -9z
m110 -21 c27 -7 26 -8 -9 -4 -22 2 -45 0 -52 -6 -7 -6 -21 -9 -31 -6 -13 3
-11 5 7 6 20 1 22 3 10 11 -19 12 31 12 75 -1z m-548 -41 c-3 -7 -5 -2 -5 12
0 14 2 19 5 13 2 -7 2 -19 0 -25z m695 22 c18 0 19 -2 7 -16 -8 -10 -15 -12
-17 -5 -2 6 -13 11 -23 11 -11 0 -18 -3 -16 -7 7 -11 -83 -7 -118 5 -25 9 -17
10 45 7 52 -2 69 0 55 6 -15 7 -12 8 14 4 18 -3 42 -5 53 -5z m-249 -17 c-7
-2 -21 -2 -30 0 -10 3 -4 5 12 5 17 0 24 -2 18 -5z m84 -9 c-3 -3 -12 -4 -19
-1 -8 3 -5 6 6 6 11 1 17 -2 13 -5z m-537 -74 c0 -27 -3 -50 -7 -50 -5 0 -6
22 -5 50 5 65 12 65 12 0z m615 1 c-3 -6 -16 -16 -28 -23 -20 -10 -20 -9 3 15
24 25 39 29 25 8z m-100 -85 c-14 -14 -30 -26 -35 -26 -6 0 4 14 22 30 38 37
50 33 13 -4z m-517 -29 c15 -16 14 -17 -1 -11 -18 7 -24 -11 -7 -19 6 -3 5 -4
-2 -3 -8 2 -14 20 -15 47 -1 24 1 35 4 24 3 -11 12 -28 21 -38z m450 1 c8 -10
5 -13 -13 -13 -18 0 -21 3 -13 13 6 6 12 12 13 12 1 0 7 -6 13 -12z m-68 -87
c-25 -22 -47 -38 -49 -35 -2 2 8 15 24 28 20 17 24 25 14 29 -8 2 -7 3 2 2 9
-1 23 1 30 6 29 18 21 7 -21 -30z m-336 14 c10 -8 23 -12 27 -9 5 3 9 1 9 -5
0 -5 3 -17 6 -26 5 -12 0 -10 -18 7 -13 12 -33 28 -44 35 -10 6 -14 12 -9 12
6 0 19 -6 29 -14z m102 -87 l19 -21 -27 18 c-29 18 -34 25 -20 25 5 0 17 -10
28 -22z m94 -35 c0 -13 -3 -13 -15 -3 -8 7 -12 16 -9 21 8 13 24 1 24 -18z
m30 12 c-7 -9 -15 -13 -17 -11 -7 7 7 26 19 26 6 0 6 -6 -2 -15z m-75 -5 c3
-5 -1 -10 -10 -10 -9 0 -13 5 -10 10 3 6 8 10 10 10 2 0 7 -4 10 -10z m35 -36
c0 -2 -7 -4 -15 -4 -8 0 -15 4 -15 10 0 5 7 7 15 4 8 -4 15 -8 15 -10z m1612
-217 c-12 -13 -22 -27 -22 -31 0 -4 -9 -19 -20 -33 -11 -14 -20 -21 -20 -16 0
6 7 16 15 23 8 7 15 17 15 22 0 15 41 70 48 64 3 -4 -4 -16 -16 -29z m-2125
-693 c-3 -3 -12 -4 -19 -1 -8 3 -5 6 6 6 11 1 17 -2 13 -5z m261 -1 c-10 -2
-26 -2 -35 0 -10 3 -2 5 17 5 19 0 27 -2 18 -5z m-518 -1042 c0 -5 -9 -7 -20
-4 -11 3 -20 7 -20 9 0 2 9 4 20 4 11 0 20 -4 20 -9z m-107 -8 c-13 -2 -33 -2
-45 0 -13 2 -3 4 22 4 25 0 35 -2 23 -4z m203 -25 l19 -21 -30 18 c-41 26 -40
25 -23 25 8 0 23 -10 34 -22z m-319 6 c-3 -3 -12 -4 -19 -1 -8 3 -5 6 6 6 11
1 17 -2 13 -5z m450 -118 c25 -23 25 -46 0 -46 -7 0 -6 4 3 10 13 8 10 14 -15
35 -16 13 -26 24 -22 25 4 0 19 -11 34 -24z m-490 -128 c-3 -8 -6 -5 -6 6 -1
11 2 17 5 13 3 -3 4 -12 1 -19z m608 -8 c3 -6 -1 -7 -9 -4 -18 7 -21 14 -7 14
6 0 13 -4 16 -10z m-612 -81 c-6 -6 -7 3 -4 23 4 28 6 29 9 9 2 -13 0 -27 -5
-32z m659 -31 c3 -7 2 -51 -2 -98 l-6 -85 -4 73 c-3 43 -1 74 5 76 6 2 5 11
-3 25 -7 11 -8 21 -3 21 5 0 11 -6 13 -12z m-13 -265 c0 -39 -3 -51 -8 -38 -8
19 -3 95 5 95 2 0 4 -26 3 -57z m-642 -85 c-2 -13 -4 -3 -4 22 0 25 2 35 4 23
2 -13 2 -33 0 -45z m630 -120 c-3 -8 -6 -5 -6 6 -1 11 2 17 5 13 3 -3 4 -12 1
-19z m-10 -50 c-3 -7 -5 -2 -5 12 0 14 2 19 5 13 2 -7 2 -19 0 -25z m-19 -39
c-3 -20 -5 -19 -9 9 -3 20 -2 29 4 23 5 -5 7 -19 5 -32z m-145 -374 c-3 -9 -8
-14 -10 -11 -3 3 -2 9 2 15 9 16 15 13 8 -4z m-486 -67 c-3 -8 -6 -5 -6 6 -1
11 2 17 5 13 3 -3 4 -12 1 -19z m420 -40 c-3 -8 -6 -5 -6 6 -1 11 2 17 5 13 3
-3 4 -12 1 -19z m-341 -148 c5 1 8 7 6 14 -2 7 1 7 9 -1 10 -11 9 -16 -7 -29
-18 -15 -18 -15 4 -11 19 5 21 3 11 -9 -15 -18 -26 -10 -43 30 -22 53 -27 84
-7 43 10 -21 22 -38 27 -37z m209 -10 c-3 -5 -12 -10 -18 -10 -7 0 -6 4 3 10
19 12 23 12 15 0z m-165 -40 c0 -5 -5 -10 -11 -10 -5 0 -7 5 -4 10 3 6 8 10
11 10 2 0 4 -4 4 -10z m0 -431 c-7 -11 -14 -18 -17 -15 -3 3 0 12 7 21 18 21
23 19 10 -6z m-30 -29 c0 -5 -5 -10 -11 -10 -5 0 -7 5 -4 10 3 6 8 10 11 10 2
0 4 -4 4 -10z m-43 -53 c-26 -35 -22 -67 8 -67 8 0 15 -7 15 -15 0 -18 -38
-20 -60 -2 -23 18 -19 32 20 77 42 48 52 53 17 7z m263 0 c0 -2 -12 -14 -27
-28 l-28 -24 24 28 c23 25 31 32 31 24z m-70 -81 c0 -2 -8 -10 -17 -17 -16
-13 -17 -12 -4 4 13 16 21 21 21 13z m-38 -48 c-16 -16 3 -38 33 -38 18 0 22
-4 18 -20 -3 -11 -14 -20 -24 -20 -28 0 -69 22 -69 37 0 14 35 53 47 53 4 0 2
-5 -5 -12z m263 -18 c-10 -11 -20 -18 -23 -15 -7 6 18 35 31 35 5 0 2 -9 -8
-20z m-35 -43 c0 -2 -12 -14 -27 -28 l-28 -24 24 28 c23 25 31 32 31 24z
m3558 -332 c-3 -3 -9 2 -12 12 -6 14 -5 15 5 6 7 -7 10 -15 7 -18z m-2238
-759 c0 -2 -8 -10 -17 -17 -16 -13 -17 -12 -4 4 13 16 21 21 21 13z m-90 -62
c0 -2 -7 -4 -15 -4 -8 0 -15 4 -15 10 0 5 7 7 15 4 8 -4 15 -8 15 -10z m-60
-22 c0 -15 -6 -18 -32 -13 -33 5 -33 6 -5 9 15 2 25 8 22 13 -4 5 -1 9 4 9 6
0 11 -8 11 -18z m-220 -149 c0 -15 47 -62 55 -55 5 4 5 2 2 -4 -4 -7 -1 -30 7
-51 8 -22 12 -52 9 -67 -5 -24 -9 -27 -32 -21 -35 8 -77 58 -84 101 -9 55 2
104 24 104 11 0 19 -3 19 -7z m836 -65 c4 -5 -9 -8 -29 -8 -20 0 -37 3 -37 8
0 4 13 7 29 7 16 0 33 -3 37 -7z m-23 -95 c-4 -9 1 -11 13 -7 18 5 18 5 0 -6
-15 -10 -20 -9 -27 1 -5 8 -9 10 -9 5 0 -6 19 -26 42 -46 l41 -37 -40 -41
c-22 -23 -43 -42 -47 -42 -3 0 -35 -20 -71 -45 -36 -24 -87 -57 -113 -72 -26
-15 -56 -35 -66 -45 -11 -10 -25 -18 -30 -18 -6 0 -22 -9 -35 -19 -18 -14 -32
-16 -65 -10 -24 4 -46 3 -53 -3 -7 -5 -66 -8 -140 -6 l-128 3 -3 30 c-2 16 -7
32 -12 35 -4 3 -9 25 -11 50 l-4 45 54 -3 c30 -2 74 2 98 9 43 12 70 6 44 -10
-10 -6 -10 -10 -1 -16 8 -5 7 -10 -3 -18 -17 -14 -30 -87 -16 -87 5 0 9 4 9
10 0 5 7 7 15 4 21 -8 19 13 -2 26 -16 10 -16 11 -1 6 14 -4 18 4 21 47 3 47
3 45 5 -17 2 -82 9 -81 22 0 l9 59 -3 -57 c-1 -32 1 -58 6 -58 14 0 10 120 -4
121 -10 0 -10 2 0 6 6 2 12 11 12 19 0 8 6 14 13 14 8 0 19 11 26 24 18 33 58
53 73 38 18 -18 53 -15 90 8 22 13 51 20 85 20 61 0 83 7 83 26 0 8 10 14 25
14 15 0 32 10 45 28 21 28 62 40 53 15z m-26 -255 c-3 -8 -6 -5 -6 6 -1 11 2
17 5 13 3 -3 4 -12 1 -19z m276 -43 c-3 -9 -8 -14 -10 -11 -3 3 -2 9 2 15 9
16 15 13 8 -4z m-8 -56 c-22 -10 -30 -16 -17 -13 12 3 22 1 22 -5 0 -6 -4 -11
-10 -11 -5 0 -7 -6 -4 -14 3 -8 -6 -32 -20 -55 -14 -22 -26 -47 -26 -55 0 -8
-5 -18 -10 -21 -6 -4 -20 -25 -31 -48 -12 -23 -26 -45 -31 -48 -6 -4 -15 -15
-21 -26 -7 -11 -23 -39 -37 -62 l-25 -41 -300 0 c-295 1 -300 1 -327 23 -31
26 -52 96 -43 145 3 19 19 48 35 65 26 28 36 32 92 34 71 3 135 -15 102 -29
-13 -5 -7 -6 16 -3 19 2 75 7 125 11 76 5 101 12 165 43 41 21 102 46 135 55
33 10 78 27 100 37 35 17 108 36 140 37 6 0 -8 -8 -30 -19z m-415 -604 c0 -23
-3 -25 -51 -25 -75 0 -241 -22 -232 -31 4 -4 55 -11 113 -14 163 -9 170 -11
170 -44 l0 -28 -127 -12 c-71 -6 -141 -12 -158 -14 -16 -1 41 -11 128 -21 152
-19 157 -21 157 -43 0 -13 -1 -23 -2 -23 -2 0 -84 11 -182 25 -99 14 -199 25
-223 25 -41 0 -43 1 -43 29 0 33 -16 28 180 54 l95 13 -137 13 -138 14 0 27 0
26 173 22 c94 12 195 24 222 25 28 2 51 4 53 5 1 1 2 -9 2 -23z m-3850 -145
l0 -140 -135 0 -135 0 0 -95 0 -95 114 0 c63 0 121 -3 130 -6 13 -5 16 -26 16
-128 0 -82 -4 -126 -12 -134 -8 -8 -52 -12 -130 -12 l-118 0 0 -115 0 -114
148 -3 147 -3 0 -135 0 -135 -360 0 -360 0 -3 615 c-1 338 0 621 3 628 3 9 83
12 350 12 l345 0 0 -140z m3200 108 c6 -18 22 -57 36 -86 13 -29 24 -57 24
-62 0 -6 9 -29 19 -53 57 -127 71 -161 71 -172 0 -7 7 -26 15 -41 12 -24 15
-93 15 -424 0 -258 -3 -391 -10 -384 -5 5 -16 30 -24 54 -20 63 -45 130 -61
165 -13 28 -23 54 -75 200 l-18 50 -4 -235 -3 -235 -180 0 -180 0 -3 615 c-1
338 0 621 3 628 3 9 49 12 183 12 l180 0 12 -32z m621 -279 c25 -18 29 -27 29
-70 0 -45 -3 -51 -32 -69 -29 -18 -51 -20 -196 -20 -125 0 -170 3 -192 15 -32
16 -46 57 -35 105 11 52 40 59 228 60 155 0 171 -2 198 -21z m26 -236 c-4 -4
-216 -22 -271 -23 -12 0 -16 -3 -10 -8 9 -9 193 -32 252 -32 29 0 32 -3 32
-29 l0 -28 -120 -13 c-66 -6 -120 -15 -120 -20 0 -4 54 -13 120 -20 116 -13
120 -14 120 -36 0 -28 3 -27 -75 -14 -33 6 -116 15 -185 20 -181 14 -190 17
-190 50 0 35 10 38 168 46 68 4 118 10 110 14 -7 4 -73 13 -145 20 l-133 13 0
27 0 27 143 16 c286 34 302 34 305 14 2 -10 1 -21 -1 -24z m-29 -287 c30 -16
32 -21 32 -72 0 -52 -1 -54 -37 -71 -30 -13 -68 -17 -183 -17 -176 -1 -225 11
-234 57 -3 17 -4 45 0 63 6 32 11 35 74 55 14 4 90 6 170 5 116 -2 151 -6 178
-20z m30 -241 c-2 -2 -62 -11 -133 -20 -71 -9 -130 -17 -132 -19 -2 -1 48 -8
110 -15 150 -17 157 -19 157 -45 0 -21 -7 -23 -117 -35 -65 -7 -136 -16 -158
-21 -40 -8 -40 -8 15 -9 30 0 101 -6 158 -13 98 -12 102 -13 102 -36 0 -22 -3
-24 -37 -17 -20 3 -87 10 -147 15 -61 5 -146 14 -188 21 -76 11 -78 12 -78 40
0 28 1 29 58 30 31 0 98 6 147 13 111 15 91 24 -80 34 l-120 7 -3 31 -3 31
103 11 c57 6 157 17 223 24 114 12 120 12 123 -5 2 -10 2 -20 0 -22z"/>
<path d="M2757 8740 c-14 -11 -29 -20 -34 -20 -5 0 -19 -18 -32 -40 -24 -44
-32 -143 -12 -163 8 -8 11 -2 11 19 0 22 3 26 10 14 6 -9 10 -10 10 -3 0 6 -4
15 -10 18 -16 10 -12 42 10 77 11 18 20 30 20 25 0 -4 10 -1 23 7 12 8 41 19
65 26 l42 11 -17 24 c-22 30 -52 32 -86 5z"/>
<path d="M2728 8615 c2 -19 6 -35 8 -35 2 0 4 16 4 35 0 19 -4 35 -8 35 -4 0
-6 -16 -4 -35z"/>
<path d="M2711 8623 c-1 -6 -4 -20 -7 -30 -5 -17 -5 -17 6 0 6 10 9 23 6 30
-3 9 -5 9 -5 0z"/>
<path d="M2716 8536 c-3 -14 -3 -32 1 -42 4 -11 3 -15 -4 -11 -16 10 -21 -34
-8 -67 12 -28 12 -27 23 30 14 69 15 114 3 114 -5 0 -12 -11 -15 -24z m4 -92
c0 -8 -5 -12 -10 -9 -6 4 -8 11 -5 16 9 14 15 11 15 -7z"/>
<path d="M7097 8264 c-4 -4 -7 -15 -7 -25 0 -9 -4 -19 -8 -21 -5 -1 -32 -50
-61 -108 -28 -58 -56 -112 -61 -120 -5 -8 -11 -22 -14 -30 -3 -8 -17 -33 -31
-55 -13 -22 -36 -61 -50 -87 -13 -26 -29 -49 -35 -53 -5 -3 -10 -13 -10 -21 0
-12 6 -11 29 5 16 12 35 21 42 21 7 0 21 7 31 16 10 9 30 17 45 16 36 -1 163
-35 163 -44 0 -3 -24 -23 -52 -44 -29 -21 -62 -46 -73 -56 -11 -10 -42 -35
-70 -56 -65 -48 -74 -60 -75 -100 0 -19 -9 -45 -20 -59 -11 -14 -18 -29 -15
-33 2 -4 -6 -12 -19 -18 -16 -7 -26 -22 -30 -46 -9 -46 12 -117 36 -124 10 -2
18 -8 18 -13 0 -4 17 -11 38 -15 20 -3 51 -14 67 -24 17 -9 73 -32 125 -50 87
-29 116 -39 130 -45 3 -2 15 -6 28 -10 12 -4 22 -11 22 -15 0 -5 10 -10 23
-12 17 -2 25 -13 34 -51 7 -27 19 -60 27 -73 9 -13 16 -30 16 -39 0 -8 5 -15
10 -15 6 0 10 -7 10 -16 0 -11 -5 -14 -16 -10 -10 4 -14 1 -11 -6 2 -7 12 -12
21 -10 15 3 16 -5 11 -75 -5 -78 -20 -158 -36 -201 -14 -37 -11 -80 12 -135
11 -29 24 -61 28 -71 5 -13 12 10 22 70 25 154 10 681 -20 719 -5 5 -9 77 -10
159 -1 82 -6 157 -10 165 -7 16 -29 129 -52 278 -6 40 -15 75 -20 79 -5 3 -9
14 -9 25 0 11 -9 37 -19 58 -24 46 -59 142 -72 194 -5 22 -18 56 -29 77 -11
22 -20 48 -20 58 0 23 -23 56 -33 46z m120 -876 c-2 -13 -4 -5 -4 17 -1 22 1
32 4 23 2 -10 2 -28 0 -40z m37 -43 c-4 -8 -8 -15 -10 -15 -2 0 -4 7 -4 15 0
8 4 15 10 15 5 0 7 -7 4 -15z m-14 -93 c0 -15 -2 -15 -10 -2 -13 20 -13 33 0
25 6 -3 10 -14 10 -23z m-360 8 c0 -5 -4 -10 -10 -10 -5 0 -10 5 -10 10 0 6 5
10 10 10 6 0 10 -4 10 -10z m103 -67 c-7 -2 -21 -2 -30 0 -10 3 -4 5 12 5 17
0 24 -2 18 -5z m17 -23 c0 -5 -5 -10 -11 -10 -5 0 -7 5 -4 10 3 6 8 10 11 10
2 0 4 -4 4 -10z m320 -66 c-27 -24 -41 -24 -21 0 9 11 9 15 -1 20 -7 3 -2 3
12 0 l25 -6 -25 28 -25 28 30 -24 31 -25 -26 -21z"/>
<path d="M2926 7953 c-6 -14 -5 -15 5 -6 7 7 10 15 7 18 -3 3 -9 -2 -12 -12z"/>
<path d="M2930 7925 c0 -2 6 -8 13 -14 10 -8 14 -7 14 2 0 8 -6 14 -14 14 -7
0 -13 -1 -13 -2z"/>
<path d="M3055 7790 c3 -5 8 -10 11 -10 2 0 4 5 4 10 0 6 -5 10 -11 10 -5 0
-7 -4 -4 -10z"/>
<path d="M6968 7783 c7 -3 16 -2 19 1 4 3 -2 6 -13 5 -11 0 -14 -3 -6 -6z"/>
<path d="M3086 7757 c3 -10 9 -15 12 -12 3 3 0 11 -7 18 -10 9 -11 8 -5 -6z"/>
<path d="M6161 7744 c0 -11 3 -14 6 -6 3 7 2 16 -1 19 -3 4 -6 -2 -5 -13z"/>
<path d="M6850 7719 c0 -5 -4 -8 -8 -5 -4 2 -14 0 -22 -6 -12 -8 -11 -9 4 -4
14 5 17 2 12 -11 -5 -15 -4 -15 9 1 15 20 20 36 10 36 -3 0 -5 -5 -5 -11z"/>
<path d="M6169 7699 c0 -21 -1 -22 -8 -5 -6 15 -9 16 -13 5 -3 -8 1 -20 8 -27
11 -10 15 -8 20 13 4 14 4 29 0 32 -3 4 -6 -5 -7 -18z"/>
<path d="M6048 7683 c7 -3 16 -2 19 1 4 3 -2 6 -13 5 -11 0 -14 -3 -6 -6z"/>
<path d="M6780 7655 c-7 -9 -8 -15 -2 -15 5 0 12 7 16 15 3 8 4 15 2 15 -2 0
-9 -7 -16 -15z"/>
<path d="M6732 7645 c-7 -8 -9 -15 -4 -15 5 0 15 7 22 15 16 19 -1 19 -18 0z"/>
<path d="M6699 7603 c-12 -16 -12 -17 2 -6 9 7 20 9 24 5 5 -4 5 -1 1 6 -9 16
-11 15 -27 -5z"/>
<path d="M5963 7603 c9 -2 23 -2 30 0 6 3 -1 5 -18 5 -16 0 -22 -2 -12 -5z"/>
<path d="M6090 7589 c0 -5 5 -7 10 -4 6 3 10 8 10 11 0 2 -4 4 -10 4 -5 0 -10
-5 -10 -11z"/>
<path d="M6126 7584 c-5 -14 -4 -15 9 -4 17 14 19 20 6 20 -5 0 -12 -7 -15
-16z"/>
<path d="M6660 7555 c-19 -22 -8 -25 13 -3 9 10 13 18 8 18 -5 0 -14 -7 -21
-15z"/>
<path d="M6121 7516 c-1 -27 -1 -28 -18 -9 -10 10 -14 13 -10 6 5 -6 5 -18 1
-24 -5 -8 -3 -9 6 -4 10 6 12 4 7 -8 -9 -24 -2 -21 15 6 10 14 12 29 7 42 -6
17 -8 16 -8 -9z"/>
<path d="M6611 7507 c-13 -21 -12 -21 5 -5 10 10 16 20 13 22 -3 3 -11 -5 -18
-17z"/>
<path d="M6084 7452 c4 -7 2 -12 -5 -12 -7 0 -9 -3 -6 -7 4 -3 -9 -21 -28 -40
-19 -18 -29 -33 -23 -33 7 0 6 -6 -2 -15 -7 -9 -11 -18 -8 -20 3 -3 20 18 39
47 18 29 37 58 41 65 5 6 3 15 -3 19 -8 4 -9 3 -5 -4z"/>
<path d="M3241 7445 c0 -5 3 -15 7 -22 5 -9 12 -6 21 10 13 20 13 21 -1 9 -13
-10 -17 -10 -21 0 -3 7 -6 9 -6 3z"/>
<path d="M6005 7429 c-11 -16 -1 -19 13 -3 7 8 8 14 3 14 -5 0 -13 -5 -16 -11z"/>
<path d="M6037 7423 c-4 -3 -7 -11 -7 -17 0 -6 5 -5 12 2 6 6 9 14 7 17 -3 3
-9 2 -12 -2z"/>
<path d="M6500 7393 c-21 -21 -26 -32 -15 -26 25 14 60 51 54 58 -3 2 -21 -12
-39 -32z"/>
<path d="M6530 7379 c0 -5 5 -7 10 -4 6 3 10 8 10 11 0 2 -4 4 -10 4 -5 0 -10
-5 -10 -11z"/>
<path d="M5980 7290 c0 -17 -5 -20 -32 -16 -18 3 -28 3 -21 0 7 -3 9 -13 6
-22 -4 -13 -2 -12 10 3 19 24 21 16 5 -20 -9 -19 -14 -22 -21 -13 -6 9 -7 8
-3 -5 3 -11 0 -20 -9 -23 -8 -4 -12 -10 -9 -15 10 -17 21 -9 39 31 10 22 26
47 36 56 20 18 25 44 9 44 -5 0 -10 -9 -10 -20z"/>
<path d="M6421 7284 c0 -11 3 -14 6 -6 3 7 2 16 -1 19 -3 4 -6 -2 -5 -13z"/>
<path d="M5841 7174 c0 -11 3 -14 6 -6 3 7 2 16 -1 19 -3 4 -6 -2 -5 -13z"/>
<path d="M5877 7173 c-4 -3 -7 -11 -7 -17 0 -6 5 -5 12 2 6 6 9 14 7 17 -3 3
-9 2 -12 -2z"/>
<path d="M5821 7154 c0 -11 3 -14 6 -6 3 7 2 16 -1 19 -3 4 -6 -2 -5 -13z"/>
<path d="M6291 7154 c0 -11 3 -14 6 -6 3 7 2 16 -1 19 -3 4 -6 -2 -5 -13z"/>
<path d="M5895 7140 c-14 -15 -21 -17 -32 -9 -17 15 -17 2 1 -16 10 -11 16
-11 26 -2 10 10 12 8 6 -6 -3 -10 -6 -24 -6 -30 0 -8 -3 -7 -9 2 -6 9 -11 10
-15 2 -4 -6 -1 -18 7 -25 12 -13 16 -10 25 21 6 20 9 41 5 46 -3 5 1 13 8 18
7 4 11 10 8 14 -3 3 -14 -4 -24 -15z"/>
<path d="M5820 7117 c0 -13 43 -122 50 -127 14 -9 31 -88 25 -113 -4 -16 -1
-28 11 -38 16 -13 17 -12 10 6 -5 11 -8 31 -7 44 2 34 -25 119 -44 137 -8 8
-15 25 -15 37 0 12 -7 31 -15 41 -8 11 -15 17 -15 13z"/>
<path d="M6256 7045 c-9 -26 -7 -32 5 -12 6 10 9 21 6 23 -2 3 -7 -2 -11 -11z"/>
<path d="M7190 7002 l5 -47 3 39 c2 21 0 42 -5 47 -4 4 -6 -13 -3 -39z"/>
<path d="M7281 6974 c0 -11 3 -14 6 -6 3 7 2 16 -1 19 -3 4 -6 -2 -5 -13z"/>
<path d="M5873 6920 c0 -19 -2 -41 -7 -48 -4 -6 -3 -12 2 -12 16 0 21 25 12
61 l-9 34 2 -35z"/>
<path d="M7290 6913 c0 -7 5 -15 10 -18 6 -4 8 -10 6 -14 -3 -4 -1 -13 5 -21
7 -12 9 -11 9 5 -1 11 -7 29 -15 39 -8 11 -15 15 -15 9z"/>
<path d="M7222 6860 c0 -14 2 -19 5 -12 2 6 2 18 0 25 -3 6 -5 1 -5 -13z"/>
<path d="M5860 6834 c-11 -12 -10 -13 4 -8 19 7 21 -7 4 -24 -8 -8 -8 -12 -1
-12 6 0 16 7 23 15 10 11 9 17 -3 29 -13 14 -16 14 -27 0z"/>
<path d="M7262 6820 c0 -14 2 -19 5 -12 2 6 2 18 0 25 -3 6 -5 1 -5 -13z"/>
<path d="M7290 6810 c0 -5 5 -10 10 -10 6 0 10 5 10 10 0 6 -4 10 -10 10 -5 0
-10 -4 -10 -10z"/>
<path d="M7241 6704 c0 -11 3 -14 6 -6 3 7 2 16 -1 19 -3 4 -6 -2 -5 -13z"/>
<path d="M7251 6670 c0 -8 6 -37 13 -65 8 -27 15 -43 15 -35 0 8 -6 38 -13 65
-8 28 -15 43 -15 35z"/>
<path d="M7290 6550 c0 -5 5 -10 10 -10 6 0 10 5 10 10 0 6 -4 10 -10 10 -5 0
-10 -4 -10 -10z"/>
<path d="M6031 6464 c0 -11 3 -14 6 -6 3 7 2 16 -1 19 -3 4 -6 -2 -5 -13z"/>
<path d="M7529 6333 c-1 -5 -1 -11 0 -15 0 -4 -6 -5 -14 -2 -15 6 -35 -14 -82
-83 -34 -50 -46 -60 -64 -56 -9 3 -20 -1 -24 -7 -5 -8 3 -11 26 -9 40 4 79 26
79 45 0 7 9 18 20 24 11 6 20 15 20 21 0 5 16 23 35 40 19 17 35 35 35 40 0
11 -29 12 -31 2z"/>
<path d="M7631 6140 c-33 -28 -71 -77 -71 -92 0 -5 8 -8 18 -8 17 0 18 -9 14
-112 l-4 -113 21 33 c12 18 21 36 21 40 0 5 9 27 20 50 36 75 52 221 25 228
-5 2 -25 -10 -44 -26z"/>
<path d="M5936 6117 c3 -10 9 -15 12 -12 3 3 0 11 -7 18 -10 9 -11 8 -5 -6z"/>
<path d="M7362 5748 c3 -15 1 -25 -3 -22 -5 3 -9 -2 -9 -11 0 -29 -33 -74 -61
-84 -26 -9 -28 -15 -35 -80 -3 -39 -7 -74 -8 -78 0 -4 13 -7 29 -8 28 0 30 -3
36 -50 4 -27 5 -60 2 -72 -4 -17 -1 -23 12 -23 19 0 75 56 75 75 0 7 11 22 24
32 28 21 63 126 65 195 1 47 1 47 -39 58 -23 6 -44 19 -47 28 -4 9 -15 28 -26
42 l-20 25 5 -27z m-27 -138 c3 -6 -1 -7 -9 -4 -18 7 -21 14 -7 14 6 0 13 -4
16 -10z"/>
<path d="M7106 5628 c-3 -13 -5 -32 -5 -43 1 -11 5 -2 10 19 10 42 6 62 -5 24z"/>
<path d="M7089 5522 c8 -6 12 -19 8 -31 -3 -12 -1 -21 5 -21 15 0 5 53 -12 57
-12 4 -13 3 -1 -5z"/>
<path d="M7057 5460 c-3 -11 -1 -20 4 -20 5 0 9 9 9 20 0 11 -2 20 -4 20 -2 0
-6 -9 -9 -20z"/>
<path d="M6607 5413 c-9 -11 -17 -24 -17 -30 0 -12 -208 -27 -235 -17 -11 5
-22 2 -29 -8 -18 -24 -50 -37 -93 -36 -23 0 -52 -7 -67 -18 -24 -15 -26 -18
-11 -27 14 -8 12 -12 -17 -32 -18 -12 -50 -25 -70 -29 -20 -4 -39 -12 -41 -19
-3 -7 -6 -7 -6 -1 -1 5 13 20 29 32 17 13 30 27 30 33 0 15 -119 -83 -119 -98
-1 -7 -5 -13 -10 -13 -10 0 -91 -75 -91 -84 0 -3 -29 -34 -65 -69 -36 -35 -65
-68 -65 -74 0 -6 -7 -13 -15 -17 -8 -3 -15 -14 -15 -25 0 -11 -5 -32 -12 -47
-11 -23 -10 -28 10 -44 12 -10 22 -23 22 -29 0 -15 -9 -14 -26 4 -16 16 -109
22 -100 6 3 -5 -4 -12 -17 -15 l-22 -6 21 -18 c11 -10 19 -22 18 -27 -7 -24
58 -57 129 -66 39 -5 86 -14 103 -19 17 -6 68 -15 113 -20 46 -5 98 -15 116
-21 28 -10 56 -9 152 5 131 20 193 35 193 48 0 4 9 8 20 8 24 0 70 28 70 42 0
5 7 16 15 24 9 10 14 32 14 57 -2 33 -3 36 -6 13 -4 -22 -7 -26 -14 -15 -6 10
-9 4 -10 -21 -1 -19 -3 -27 -6 -17 -3 10 -14 17 -26 16 -21 0 -21 -1 -2 -8 14
-6 7 -8 -25 -8 -28 0 -38 2 -26 7 17 6 18 7 3 13 -9 3 -17 11 -17 17 0 6 5 8
12 4 6 -4 8 -3 4 4 -4 7 -16 7 -39 1 -17 -6 -95 -12 -172 -14 -77 -1 -123 -1
-102 2 36 4 45 16 29 41 -5 6 -42 16 -83 22 -41 5 -96 18 -121 29 -40 17 -48
25 -53 54 -5 25 -2 43 10 61 17 25 45 36 45 17 0 -5 17 -15 38 -22 20 -6 63
-29 95 -50 49 -32 67 -39 109 -39 58 0 158 41 158 65 0 8 9 24 19 34 11 11 22
41 26 71 l7 51 63 -3 c56 -2 61 -4 57 -22 -3 -11 -1 -17 5 -13 6 4 8 -4 6 -21
-4 -22 -2 -24 7 -12 9 12 11 7 6 -25 l-5 -40 27 31 c25 29 57 49 74 46 11 -2
108 95 108 108 0 6 11 26 25 44 14 18 25 38 25 44 0 5 15 22 33 36 17 14 40
32 50 41 9 8 22 15 27 15 6 0 10 3 10 8 0 7 -105 43 -127 42 -7 0 -13 5 -13
10 0 6 5 10 10 10 6 0 10 7 10 15 0 10 -10 15 -29 15 -15 0 -48 3 -72 6 -36 5
-47 2 -62 -13z m-32 -99 c-21 -8 -230 -31 -247 -26 -10 2 -15 8 -12 13 3 5 -1
6 -9 3 -8 -3 -18 -1 -22 5 -4 8 41 11 147 10 84 0 148 -3 143 -5z m-245 -275
c0 -34 -3 -39 -24 -39 -18 0 -25 -7 -29 -29 -7 -34 -58 -61 -80 -42 -8 6 -18
7 -22 3 -5 -4 -5 -2 -1 5 3 6 2 14 -4 18 -5 3 -10 1 -10 -4 0 -6 -4 -11 -8
-11 -5 0 -9 7 -9 15 0 11 12 15 47 15 25 0 55 6 65 14 19 14 19 15 1 35 -10
11 -23 18 -27 15 -9 -5 -13 39 -5 47 2 2 27 2 55 1 l51 -4 0 -39z m-360 -29
c0 -5 -5 -10 -11 -10 -5 0 -7 5 -4 10 3 6 8 10 11 10 2 0 4 -4 4 -10z m220
-96 c0 -2 -9 -4 -20 -4 -11 0 -20 4 -20 9 0 5 9 7 20 4 11 -3 20 -7 20 -9z
m-435 -104 c3 -5 2 -10 -4 -10 -5 0 -13 5 -16 10 -3 6 -2 10 4 10 5 0 13 -4
16 -10z m200 1 c-3 -6 10 -8 32 -6 l38 5 -34 -9 c-37 -10 -64 -5 -55 10 3 5
10 9 15 9 6 0 8 -4 4 -9z m-160 -19 c-3 -3 -11 0 -18 7 -9 10 -8 11 6 5 10 -3
15 -9 12 -12z m254 -18 c10 -9 -45 -3 -59 6 -11 7 -5 8 20 4 19 -4 37 -8 39
-10z m-204 -34 l30 -2 -30 -7 c-16 -4 -33 -3 -36 2 -4 5 -15 7 -25 3 -11 -3
-25 -2 -33 3 -13 9 13 9 94 1z m238 -27 c-7 -2 -21 -2 -30 0 -10 3 -4 5 12 5
17 0 24 -2 18 -5z m60 -20 c-7 -2 -19 -2 -25 0 -7 3 -2 5 12 5 14 0 19 -2 13
-5z m114 -5 c-22 -4 -53 -4 -70 0 -26 7 -18 9 38 9 62 0 65 -1 32 -9z m213 -2
c0 -2 -7 -6 -15 -10 -8 -3 -15 -1 -15 4 0 6 7 10 15 10 8 0 15 -2 15 -4z"/>
<path d="M7030 5258 c0 -7 -3 -24 -7 -37 -4 -18 -2 -22 8 -19 16 5 22 55 8 63
-5 4 -9 0 -9 -7z"/>
<path d="M7085 5210 c14 -16 17 -31 12 -82 -3 -40 -2 -52 3 -33 17 66 4 135
-25 135 -5 0 0 -9 10 -20z"/>
<path d="M7166 5203 c-6 -14 -5 -15 5 -6 7 7 10 15 7 18 -3 3 -9 -2 -12 -12z"/>
<path d="M7145 5100 c-3 -5 -1 -10 4 -10 6 0 11 5 11 10 0 6 -2 10 -4 10 -3 0
-8 -4 -11 -10z"/>
<path d="M7137 5073 c-4 -3 -7 -11 -7 -17 0 -6 5 -5 12 2 6 6 9 14 7 17 -3 3
-9 2 -12 -2z"/>
<path d="M6646 5045 c-13 -14 -31 -25 -40 -25 -9 0 -19 -8 -22 -17 -6 -18 -11
-30 -45 -89 -11 -20 -14 -34 -8 -34 6 0 9 -7 5 -15 -5 -13 -2 -13 18 0 24 16
36 42 36 81 0 31 48 76 73 68 14 -4 18 -2 14 7 -2 8 -10 13 -16 11 -7 -1 -10
2 -6 8 3 6 10 8 15 5 4 -3 10 2 14 10 9 23 -12 18 -38 -10z"/>
<path d="M7082 5003 c-9 -28 -9 -40 0 -48 8 -7 9 -7 5 1 -4 7 -2 26 4 43 6 18
9 34 7 37 -3 2 -10 -13 -16 -33z"/>
<path d="M7120 4974 c0 -16 -2 -17 -10 -4 -5 8 -10 11 -10 5 0 -5 4 -16 9 -24
7 -11 10 -9 16 8 4 13 4 25 1 28 -3 4 -6 -2 -6 -13z"/>
<path d="M7050 4899 c-6 -22 -9 -48 -7 -57 3 -11 5 -8 7 8 1 22 2 22 9 6 5
-12 7 0 8 33 0 28 -1 51 -3 51 -2 0 -8 -18 -14 -41z"/>
<path d="M7091 4923 c0 -6 -4 -20 -7 -30 -5 -14 -4 -15 5 -7 7 7 11 20 8 30
-3 11 -5 14 -6 7z"/>
<path d="M6507 4863 c-4 -3 -7 -11 -7 -17 0 -6 5 -5 12 2 6 6 9 14 7 17 -3 3
-9 2 -12 -2z"/>
<path d="M7082 4850 c0 -14 2 -19 5 -12 2 6 2 18 0 25 -3 6 -5 1 -5 -13z"/>
<path d="M7030 4806 c0 -7 -7 -19 -16 -26 -8 -8 -20 -23 -25 -34 -6 -12 3 -7
20 13 27 30 41 61 26 61 -3 0 -5 -6 -5 -14z"/>
<path d="M7062 4773 c-7 -25 -11 -47 -9 -50 2 -2 10 17 17 42 7 25 11 48 8 50
-2 2 -10 -16 -16 -42z"/>
<path d="M6430 4779 c0 -5 5 -7 10 -4 6 3 10 8 10 11 0 2 -4 4 -10 4 -5 0 -10
-5 -10 -11z"/>
<path d="M7041 4694 c0 -11 3 -14 6 -6 3 7 2 16 -1 19 -3 4 -6 -2 -5 -13z"/>
<path d="M6937 4674 c-10 -14 -16 -35 -14 -47 4 -19 4 -18 6 6 0 15 5 27 10
27 8 0 24 30 19 35 -2 2 -11 -8 -21 -21z"/>
<path d="M7250 4643 c0 -5 5 -15 10 -23 7 -12 9 -10 7 8 -1 19 -17 33 -17 15z"/>
<path d="M7210 4625 c-9 -10 -9 -15 -1 -15 6 0 11 5 11 11 0 5 5 7 12 3 7 -4
8 -3 4 4 -9 15 -11 15 -26 -3z"/>
<path d="M7240 4601 c0 -7 -5 -9 -12 -5 -7 5 -8 3 -3 -5 5 -9 10 -10 18 -2 6
6 8 14 4 18 -4 3 -7 1 -7 -6z"/>
<path d="M6950 4540 c5 -18 12 -35 16 -39 9 -9 -7 53 -17 63 -5 5 -4 -5 1 -24z"/>
<path d="M6903 4445 c0 -38 2 -53 4 -32 2 20 2 52 0 70 -2 17 -4 1 -4 -38z"/>
<path d="M6931 4494 c0 -11 3 -14 6 -6 3 7 2 16 -1 19 -3 4 -6 -2 -5 -13z"/>
<path d="M6991 4494 c0 -11 3 -14 6 -6 3 7 2 16 -1 19 -3 4 -6 -2 -5 -13z"/>
<path d="M6981 4434 c0 -11 3 -14 6 -6 3 7 2 16 -1 19 -3 4 -6 -2 -5 -13z"/>
<path d="M6927 4373 c-4 -3 -7 -11 -7 -17 0 -6 5 -5 12 2 6 6 9 14 7 17 -3 3
-9 2 -12 -2z"/>
<path d="M6890 4338 c0 -19 2 -20 10 -8 13 19 13 30 0 30 -5 0 -10 -10 -10
-22z"/>
<path d="M5700 4053 c-34 -76 -33 -107 3 -246 30 -115 37 -130 62 -143 30 -15
49 -10 25 7 -12 9 -12 10 3 5 10 -3 20 -6 23 -6 2 0 1 -6 -2 -14 -3 -8 7 -18
25 -26 17 -7 31 -16 31 -21 0 -5 7 -9 15 -9 17 0 52 -18 73 -37 7 -7 19 -13
25 -13 6 0 -13 21 -43 48 -30 26 -57 47 -62 47 -4 0 -15 10 -23 23 -9 12 -22
22 -28 22 -11 0 -37 103 -57 228 -5 30 -17 63 -27 75 -10 11 -13 18 -7 14 7
-4 9 2 6 18 -2 14 -8 25 -13 25 -5 0 -7 11 -3 25 10 40 -3 29 -26 -22z m17
-195 c-3 -7 -5 -2 -5 12 0 14 2 19 5 13 2 -7 2 -19 0 -25z m24 -25 c-12 -20
-14 -14 -5 12 4 9 9 14 11 11 3 -2 0 -13 -6 -23z"/>
<path d="M5612 3378 c-17 -19 -19 -25 -7 -25 8 0 15 4 15 8 0 5 6 6 14 3 8 -3
17 0 22 7 4 7 3 10 -4 5 -6 -3 -12 1 -14 10 -2 13 -7 11 -26 -8z"/>
<path d="M6540 1526 l0 -96 49 0 48 0 -8 43 c-24 118 -34 142 -62 145 l-27 3
0 -95z"/>
<path d="M5208 9053 c7 -3 16 -2 19 1 4 3 -2 6 -13 5 -11 0 -14 -3 -6 -6z"/>
<path d="M5348 2483 c7 -3 16 -2 19 1 4 3 -2 6 -13 5 -11 0 -14 -3 -6 -6z"/>
<path d="M6150 2449 c0 -5 5 -7 10 -4 6 3 10 8 10 11 0 2 -4 4 -10 4 -5 0 -10
-5 -10 -11z"/>
<path d="M6181 2414 c0 -11 3 -14 6 -6 3 7 2 16 -1 19 -3 4 -6 -2 -5 -13z"/>
<path d="M5430 2351 c0 -10 19 -25 25 -20 1 2 -3 10 -11 17 -8 7 -14 8 -14 3z"/>
<path d="M6015 2340 c-3 -5 -1 -10 4 -10 6 0 11 5 11 10 0 6 -2 10 -4 10 -3 0
-8 -4 -11 -10z"/>
<path d="M5410 2320 c0 -6 7 -10 15 -10 8 0 15 2 15 4 0 2 -7 6 -15 10 -8 3
-15 1 -15 -4z"/>
<path d="M5956 2295 c-11 -8 -17 -17 -14 -20 2 -3 13 4 23 15 21 23 18 25 -9
5z"/>
<path d="M6097 2286 c-4 -10 -1 -13 9 -9 15 6 19 23 5 23 -5 0 -11 -7 -14 -14z"/>
<path d="M6006 2133 c-6 -14 -5 -15 5 -6 7 7 10 15 7 18 -3 3 -9 -2 -12 -12z"/>
<path d="M5464 1560 c-30 -11 -37 -39 -19 -66 15 -23 20 -24 149 -24 129 0
133 1 145 24 21 39 6 63 -44 70 -56 9 -204 6 -231 -4z"/>
<path d="M5471 1038 c-42 -22 -49 -45 -23 -70 21 -21 31 -23 146 -23 101 0
125 3 139 17 22 21 22 45 0 66 -22 22 -225 30 -262 10z"/>
</g>
</svg>
